<?xml version="1.0" encoding="UTF-8"?>
<svg id="_レイヤー_1" data-name="レイヤー 1" xmlns="http://www.w3.org/2000/svg" viewBox="0 0 1182.63 265.05">
  <defs>
    <style>
      .cls-1, .cls-2, .cls-3, .cls-4, .cls-5, .cls-6, .cls-7 {
        font-family: Montserrat-ExtraLight, Montserrat;
        font-weight: 200;
      }

      .cls-1, .cls-8 {
        letter-spacing: .3em;
      }

      .cls-9 {
        fill: #93a08f;
      }

      .cls-2 {
        letter-spacing: .35em;
      }

      .cls-3 {
        letter-spacing: .32em;
      }

      .cls-4 {
        letter-spacing: .3em;
      }

      .cls-10 {
        fill: #232323;
      }

      .cls-8, .cls-11 {
        font-family: CormorantGaramond-Light, 'Cormorant Garamond';
        font-variation-settings: 'wght' 300;
        font-weight: 300;
      }

      .cls-5 {
        letter-spacing: .29em;
      }

      .cls-6 {
        letter-spacing: .32em;
      }

      .cls-12 {
        font-size: 40px;
        stroke: #000;
        stroke-miterlimit: 10;
      }

      .cls-7 {
        letter-spacing: .28em;
      }
    </style>
  </defs>
  <text class="cls-12" transform="translate(432.97 150.88) scale(.95 1)"><tspan class="cls-3" x="0" y="0">K</tspan><tspan class="cls-6" x="40.84" y="0">AW</tspan><tspan class="cls-2" x="137.4" y="0">AI</tspan><tspan class="cls-8" x="204.84" y="-1.5" xml:space="preserve">　  </tspan><tspan class="cls-1" x="299.56" y="0">DESIGN</tspan><tspan class="cls-11" x="530.64" y="-1.5">　</tspan><tspan class="cls-5" x="570.64" y="0">S</tspan><tspan class="cls-7" x="606.4" y="0">T</tspan><tspan class="cls-4" x="640" y="0">UDIO</tspan></text>
  <g>
    <path class="cls-10" d="M685.26,15.05c10.13,0,17.73.74,22.8,2.2,5.06,1.47,8.46,4.14,10.2,8,1.73,3.87,2.6,9.67,2.6,17.4v63.7h21.2v-62.9c0-12.53,3.46-20.46,10.4-23.8,6.93-3.33,18.53-5,34.8-5,23.2,0,43.2,5.6,60,16.8,16.8,11.2,29.8,26.2,39,45,4.59,9.38,8.04,19.35,10.34,29.9h26.98c-2.78-13.32-7.88-25.76-15.32-37.3-11.87-18.4-28.47-32.93-49.8-43.6-21.34-10.66-46.27-16-74.8-16-6.94,0-15.27.34-25,1-9.74.67-18.87,1-27.4,1s-16.74-.2-24.6-.6c-7.87-.4-15-.6-21.4-.6-.54,0-.8.8-.8,2.4s.26,2.4.8,2.4Z"/>
    <path class="cls-10" d="M546.86,15.05c14.13,0,21.8,1.67,23,5,1.2,3.34-3.27,10.07-13.4,20.2l-66.36,66.1h10.07l65.49-63.7c11.2-10.93,22.8-18.26,34.8-22,12-3.73,22.53-5.6,31.6-5.6.8,0,1.2-.8,1.2-2.4s-.4-2.4-1.2-2.4c-5.34,0-10.87.2-16.6.6-5.74.4-13.54.6-23.4.6-10.67,0-19.27-.2-25.8-.6-6.54-.4-13-.6-19.4-.6-.54,0-.8.8-.8,2.4s.26,2.4.8,2.4Z"/>
    <path class="cls-10" d="M411.66,15.05c10.13,0,17.73.74,22.8,2.2,5.06,1.47,8.46,4.14,10.2,8,1.73,3.87,2.6,9.67,2.6,17.4v63.7h21.2v-62.9c0-7.73.86-13.6,2.6-17.6,1.73-4,5.13-6.8,10.2-8.4,5.06-1.6,12.66-2.4,22.8-2.4.53,0,.8-.8.8-2.4s-.27-2.4-.8-2.4c-6.14,0-13.07.2-20.8.6-7.74.4-16.27.6-25.6.6-8.54,0-16.74-.2-24.6-.6-7.87-.4-15-.6-21.4-.6-.54,0-.8.8-.8,2.4s.26,2.4.8,2.4Z"/>
    <path class="cls-10" d="M1025.92,106.35h34.21c-7.7-5.53-14.07-11.89-19.08-19.1-5.47-7.86-8.2-17.4-8.2-28.6,0-7.73,1.46-15.2,4.4-22.4,2.93-7.2,7.8-13.2,14.6-18,6.8-4.8,15.93-7.2,27.4-7.2,9.6,0,17.8,1.67,24.6,5,6.8,3.34,12.4,7.67,16.8,13,4.4,5.34,7.73,11.14,10,17.4,2.26,6.27,3.66,12.34,4.2,18.2.26,1.07,1.13,1.6,2.6,1.6s2.2-.53,2.2-1.6l-3.6-42.4c0-1.33-.47-2.6-1.4-3.8-.94-1.2-2.47-2.2-4.6-3-8.27-3.46-16.2-5.93-23.8-7.4-7.6-1.46-14.87-2.2-21.8-2.2-12,0-23.54,2.27-34.6,6.8-11.07,4.54-20.07,11.4-27,20.6-6.94,9.2-10.4,20.74-10.4,34.6,0,12.54,2.73,23,8.2,31.4,1.61,2.47,3.37,4.83,5.27,7.1Z"/>
    <path class="cls-10" d="M1108.89,166.35c3.79,3.85,7.19,8.01,10.16,12.5,5.73,8.67,8.6,19.54,8.6,32.6,0,12-2.47,21.47-7.4,28.4-4.94,6.94-11.27,11.94-19,15-7.74,3.07-15.74,4.6-24,4.6-10.94,0-20.47-2.06-28.6-6.2-8.14-4.13-14.94-9.53-20.4-16.2-5.47-6.66-9.8-14-13-22s-5.34-16-6.4-24c-.27-1.06-1.14-1.53-2.6-1.4-1.47.14-2.07.87-1.8,2.2l6,52c.26,1.87.6,3.4,1,4.6.4,1.2,1.26,2.2,2.6,3,6.93,3.47,13.4,6.2,19.4,8.2s11.86,3.4,17.6,4.2c5.73.8,11.53,1.2,17.4,1.2,18.13,0,33.2-3.07,45.2-9.2,12-6.13,21-14.33,27-24.6,6-10.26,9-21.53,9-33.8s-2.76-22.63-8.27-31.1h-32.49Z"/>
    <path class="cls-10" d="M504.06,255.45c-10.14,0-17.8-.66-23-2-5.2-1.33-8.6-4-10.2-8s-2.4-9.86-2.4-17.6v-61.5h-21.2v61.5c0,7.74-.87,13.6-2.6,17.6-1.74,4-5.2,6.67-10.4,8-5.2,1.34-12.87,2-23,2-.54,0-.8.8-.8,2.4s.26,2.4.8,2.4c6.4,0,13.6-.13,21.6-.4,8-.26,16.26-.4,24.8-.4,9.33,0,17.8.14,25.4.4,7.6.27,14.6.4,21,.4.53,0,.8-.8.8-2.4s-.27-2.4-.8-2.4Z"/>
    <path class="cls-10" d="M897.99,166.35c-2.31,13.93-6.55,26.36-12.73,37.3-9.87,17.47-23.4,30.67-40.6,39.6-17.2,8.94-37,13.4-59.4,13.4-17.87,0-29.54-2.66-35-8-5.47-5.33-8.2-13.73-8.2-25.2v-57.1h-21.2v61.5c0,7.74-.87,13.6-2.6,17.6-1.74,4-5.2,6.67-10.4,8-5.2,1.34-12.87,2-23,2-.54,0-.8.8-.8,2.4s.26,2.4.8,2.4c6.4,0,13.6-.13,21.6-.4,8-.26,16.26-.4,24.8-.4,9.33,0,19.46.4,30.4,1.2,10.93.8,20.13,1.2,27.6,1.2,18.4,0,35.86-3.06,52.4-9.2,16.53-6.13,31.13-14.86,43.8-26.2,12.66-11.33,22.6-25.06,29.8-41.2,2.69-6.03,4.88-12.33,6.56-18.9h-23.83Z"/>
    <path class="cls-10" d="M650.86,255.45c-5.07,0-9.67-.06-13.8-.2-4.14-.13-8.47-1.2-13-3.2-4.54-2-9.74-5.53-15.6-10.6-5.87-5.06-13.14-12.46-21.8-22.2-8.67-9.73-19.27-22.46-31.8-38.2l-11.69-14.7h-25.97l28.86,35.9c10.13,12.8,17.86,23.07,23.2,30.8,5.33,7.74,9.4,13.6,12.2,17.6,2.8,4,5.26,6.67,7.4,8,2.13,1.34,5.06,2,8.8,2,1.33,0,2.6-.07,3.8-.2,1.2-.14,2.73-.2,4.6-.2h44.8c.8,0,1.2-.8,1.2-2.4s-.4-2.4-1.2-2.4Z"/>
  </g>
  <path class="cls-9" d="M650.86,255.45c-5.07,0-9.67-.06-13.8-.2-4.14-.13-8.47-1.2-13-3.2-4.54-2-9.74-5.53-15.6-10.6-5.87-5.06-13.14-12.46-21.8-22.2-8.67-9.73-19.27-22.46-31.8-38.2l-11.69-14.7h-25.97l28.86,35.9c10.13,12.8,17.86,23.07,23.2,30.8,5.33,7.74,9.4,13.6,12.2,17.6,2.8,4,5.26,6.67,7.4,8,2.13,1.34,5.06,2,8.8,2,1.33,0,2.6-.07,3.8-.2,1.2-.14,2.73-.2,4.6-.2h44.8c.8,0,1.2-.8,1.2-2.4s-.4-2.4-1.2-2.4Z"/>
</svg>